# xmcd
#
# Track frame offsets:
#	151
#	12541
#	31641
#	54133
#	85804
#	103658
#	121718
#	140120
#	155415
#	172198
#	196809
#	211956
#	226669
#	249384
#
# Disc length: 3533 seconds
#
# Revision: 1
# Processed by: cddbd v1.4PL0 Copyright (c) Steve Scherf et al.
# Submitted via: audiograbber 1.81.02
#
DISCID=ac0dcb0e
DTITLE=Felonius Blues Review - Sketches In Blue
DYEAR=2001
DGENRE=Blues
TTITLE0=Like Crying
TTITLE1=Statesboro Blues
TTITLE2=Fishin' Blues
TTITLE3=I've Been So Alone
TTITLE4=Louis Collins
TTITLE5=Don't Think Twice, It's Alright
TTITLE6=Leopard Skin Pillbox Hat
TTITLE7=Walk On Boy
TTITLE8=Stealin'
TTITLE9=I'm So Lonesome I Could Cry
TTITLE10=Don't Sell It, Don't Give It Away
TTITLE11=Frigidaire Woman
TTITLE12=Tribute To Mississippi Fred McDowell
TTITLE13=Roll Em Easy
EXTD=Metal Monster Music © 2001
EXTT0=
EXTT1=
EXTT2=
EXTT3=
EXTT4=
EXTT5=
EXTT6=
EXTT7=
EXTT8=
EXTT9=
EXTT10=
EXTT11=
EXTT12=
EXTT13=
PLAYORDER=
